<mxfile host="app.diagrams.net" modified="2022-09-20T07:37:13.158Z" agent="5.0 (Windows NT 10.0; Win64; x64) AppleWebKit/537.36 (KHTML, like Gecko) Chrome/105.0.0.0 Safari/537.36" etag="x4ZAkFIBeGS5lnmnGdU8" version="20.3.0" type="github">
  <diagram id="C5RBs43oDa-KdzZeNtuy" name="Page-1">
    <mxGraphModel dx="1185" dy="635" grid="1" gridSize="10" guides="1" tooltips="1" connect="1" arrows="1" fold="1" page="1" pageScale="1" pageWidth="827" pageHeight="1169" math="0" shadow="0">
      <root>
        <mxCell id="WIyWlLk6GJQsqaUBKTNV-0" />
        <mxCell id="WIyWlLk6GJQsqaUBKTNV-1" parent="WIyWlLk6GJQsqaUBKTNV-0" />
        <mxCell id="w46rc9Ggta0nKSejpY7C-11" value="No" style="edgeStyle=orthogonalEdgeStyle;rounded=1;orthogonalLoop=1;jettySize=auto;html=1;exitX=1;exitY=0.5;exitDx=0;exitDy=0;entryX=0;entryY=0.5;entryDx=0;entryDy=0;shape=flexArrow;fillColor=default;endSize=4;width=5;endWidth=15;" parent="WIyWlLk6GJQsqaUBKTNV-1" source="WIyWlLk6GJQsqaUBKTNV-6" target="w46rc9Ggta0nKSejpY7C-2" edge="1">
          <mxGeometry relative="1" as="geometry" />
        </mxCell>
        <mxCell id="w46rc9Ggta0nKSejpY7C-30" value="Yes" style="edgeStyle=orthogonalEdgeStyle;rounded=1;orthogonalLoop=1;jettySize=auto;html=1;exitX=0.5;exitY=1;exitDx=0;exitDy=0;entryX=0.5;entryY=0;entryDx=0;entryDy=0;shape=flexArrow;fillColor=default;endSize=4;width=5;endWidth=15;" parent="WIyWlLk6GJQsqaUBKTNV-1" source="WIyWlLk6GJQsqaUBKTNV-6" target="w46rc9Ggta0nKSejpY7C-29" edge="1">
          <mxGeometry relative="1" as="geometry" />
        </mxCell>
        <mxCell id="WIyWlLk6GJQsqaUBKTNV-6" value="&lt;font style=&quot;font-size: 10px&quot;&gt;Play &lt;br&gt;Computer Button pressed?&lt;/font&gt;" style="rhombus;whiteSpace=wrap;html=1;shadow=0;fontFamily=Helvetica;fontSize=12;align=center;strokeWidth=1;spacing=6;spacingTop=-4;fillColor=#fff2cc;strokeColor=#d6b656;" parent="WIyWlLk6GJQsqaUBKTNV-1" vertex="1">
          <mxGeometry x="175" y="240" width="90" height="80" as="geometry" />
        </mxCell>
        <mxCell id="w46rc9Ggta0nKSejpY7C-8" style="edgeStyle=orthogonalEdgeStyle;rounded=1;orthogonalLoop=1;jettySize=auto;html=1;exitX=1;exitY=0.5;exitDx=0;exitDy=0;shape=flexArrow;fillColor=default;endSize=4;width=5;endWidth=15;" parent="WIyWlLk6GJQsqaUBKTNV-1" source="w46rc9Ggta0nKSejpY7C-0" target="w46rc9Ggta0nKSejpY7C-7" edge="1">
          <mxGeometry relative="1" as="geometry" />
        </mxCell>
        <mxCell id="w46rc9Ggta0nKSejpY7C-0" value="Game&amp;nbsp;&lt;br&gt;opened" style="ellipse;whiteSpace=wrap;html=1;aspect=fixed;fillColor=#d5e8d4;strokeColor=#82b366;" parent="WIyWlLk6GJQsqaUBKTNV-1" vertex="1">
          <mxGeometry x="40" y="60" width="80" height="80" as="geometry" />
        </mxCell>
        <mxCell id="w46rc9Ggta0nKSejpY7C-12" value="No" style="edgeStyle=orthogonalEdgeStyle;rounded=1;orthogonalLoop=1;jettySize=auto;html=1;exitX=1;exitY=0.5;exitDx=0;exitDy=0;entryX=0;entryY=0.5;entryDx=0;entryDy=0;shape=flexArrow;fillColor=default;endSize=4;width=5;endWidth=15;" parent="WIyWlLk6GJQsqaUBKTNV-1" source="w46rc9Ggta0nKSejpY7C-2" target="w46rc9Ggta0nKSejpY7C-3" edge="1">
          <mxGeometry relative="1" as="geometry" />
        </mxCell>
        <mxCell id="w46rc9Ggta0nKSejpY7C-20" value="Yes" style="edgeStyle=orthogonalEdgeStyle;rounded=1;orthogonalLoop=1;jettySize=auto;html=1;exitX=0.5;exitY=1;exitDx=0;exitDy=0;shape=flexArrow;fillColor=default;endSize=4;width=5;endWidth=15;" parent="WIyWlLk6GJQsqaUBKTNV-1" source="w46rc9Ggta0nKSejpY7C-2" target="w46rc9Ggta0nKSejpY7C-22" edge="1">
          <mxGeometry relative="1" as="geometry">
            <mxPoint x="355" y="400" as="targetPoint" />
          </mxGeometry>
        </mxCell>
        <mxCell id="w46rc9Ggta0nKSejpY7C-2" value="&lt;font style=&quot;font-size: 10px&quot;&gt;Play &lt;br&gt;Online Button pressed?&lt;/font&gt;" style="rhombus;whiteSpace=wrap;html=1;shadow=0;fontFamily=Helvetica;fontSize=12;align=center;strokeWidth=1;spacing=6;spacingTop=-4;fillColor=#fff2cc;strokeColor=#d6b656;" parent="WIyWlLk6GJQsqaUBKTNV-1" vertex="1">
          <mxGeometry x="310" y="240" width="90" height="80" as="geometry" />
        </mxCell>
        <mxCell id="w46rc9Ggta0nKSejpY7C-13" value="No" style="edgeStyle=orthogonalEdgeStyle;rounded=1;orthogonalLoop=1;jettySize=auto;html=1;exitX=1;exitY=0.5;exitDx=0;exitDy=0;entryX=0;entryY=0.5;entryDx=0;entryDy=0;shape=flexArrow;fillColor=default;endSize=4;width=5;endWidth=15;" parent="WIyWlLk6GJQsqaUBKTNV-1" source="w46rc9Ggta0nKSejpY7C-3" target="w46rc9Ggta0nKSejpY7C-5" edge="1">
          <mxGeometry relative="1" as="geometry" />
        </mxCell>
        <mxCell id="w46rc9Ggta0nKSejpY7C-19" value="Yes" style="edgeStyle=orthogonalEdgeStyle;rounded=1;orthogonalLoop=1;jettySize=auto;html=1;exitX=0.5;exitY=1;exitDx=0;exitDy=0;shape=flexArrow;fillColor=default;endSize=4;width=5;endWidth=15;" parent="WIyWlLk6GJQsqaUBKTNV-1" source="w46rc9Ggta0nKSejpY7C-3" target="w46rc9Ggta0nKSejpY7C-17" edge="1">
          <mxGeometry relative="1" as="geometry" />
        </mxCell>
        <mxCell id="w46rc9Ggta0nKSejpY7C-3" value="&lt;font style=&quot;font-size: 10px&quot;&gt;Settings &lt;br&gt;Button &lt;br&gt;pressed?&lt;/font&gt;" style="rhombus;whiteSpace=wrap;html=1;shadow=0;fontFamily=Helvetica;fontSize=12;align=center;strokeWidth=1;spacing=6;spacingTop=-4;fillColor=#fff2cc;strokeColor=#d6b656;" parent="WIyWlLk6GJQsqaUBKTNV-1" vertex="1">
          <mxGeometry x="440" y="240" width="90" height="80" as="geometry" />
        </mxCell>
        <mxCell id="w46rc9Ggta0nKSejpY7C-10" value="No" style="edgeStyle=orthogonalEdgeStyle;rounded=1;orthogonalLoop=1;jettySize=auto;html=1;exitX=0.5;exitY=0;exitDx=0;exitDy=0;entryX=1;entryY=0.5;entryDx=0;entryDy=0;shape=flexArrow;fillColor=default;endSize=4;width=5;endWidth=15;" parent="WIyWlLk6GJQsqaUBKTNV-1" source="w46rc9Ggta0nKSejpY7C-5" target="w46rc9Ggta0nKSejpY7C-31" edge="1">
          <mxGeometry relative="1" as="geometry" />
        </mxCell>
        <mxCell id="w46rc9Ggta0nKSejpY7C-14" value="Yes" style="edgeStyle=orthogonalEdgeStyle;rounded=1;orthogonalLoop=1;jettySize=auto;html=1;exitX=0.5;exitY=1;exitDx=0;exitDy=0;shape=flexArrow;fillColor=default;endSize=4;width=5;endWidth=15;" parent="WIyWlLk6GJQsqaUBKTNV-1" source="w46rc9Ggta0nKSejpY7C-5" target="w46rc9Ggta0nKSejpY7C-15" edge="1">
          <mxGeometry relative="1" as="geometry">
            <mxPoint x="615" y="370" as="targetPoint" />
          </mxGeometry>
        </mxCell>
        <mxCell id="w46rc9Ggta0nKSejpY7C-5" value="&lt;font style=&quot;font-size: 10px&quot;&gt;Quit&lt;br&gt;Button &lt;br&gt;pressed?&lt;/font&gt;" style="rhombus;whiteSpace=wrap;html=1;shadow=0;fontFamily=Helvetica;fontSize=12;align=center;strokeWidth=1;spacing=6;spacingTop=-4;fillColor=#fff2cc;strokeColor=#d6b656;" parent="WIyWlLk6GJQsqaUBKTNV-1" vertex="1">
          <mxGeometry x="570" y="240" width="90" height="80" as="geometry" />
        </mxCell>
        <mxCell id="w46rc9Ggta0nKSejpY7C-33" style="edgeStyle=orthogonalEdgeStyle;rounded=1;orthogonalLoop=1;jettySize=auto;html=1;exitX=0.5;exitY=1;exitDx=0;exitDy=0;shape=flexArrow;fillColor=default;endSize=4;width=5;endWidth=15;" parent="WIyWlLk6GJQsqaUBKTNV-1" source="w46rc9Ggta0nKSejpY7C-7" target="w46rc9Ggta0nKSejpY7C-31" edge="1">
          <mxGeometry relative="1" as="geometry" />
        </mxCell>
        <mxCell id="w46rc9Ggta0nKSejpY7C-7" value="Home scene loads" style="rounded=1;whiteSpace=wrap;html=1;fillColor=#dae8fc;strokeColor=#6c8ebf;" parent="WIyWlLk6GJQsqaUBKTNV-1" vertex="1">
          <mxGeometry x="160" y="80" width="120" height="40" as="geometry" />
        </mxCell>
        <mxCell id="w46rc9Ggta0nKSejpY7C-15" value="Game closes" style="ellipse;whiteSpace=wrap;html=1;aspect=fixed;fillColor=#f8cecc;strokeColor=#b85450;" parent="WIyWlLk6GJQsqaUBKTNV-1" vertex="1">
          <mxGeometry x="575" y="360" width="80" height="80" as="geometry" />
        </mxCell>
        <mxCell id="w46rc9Ggta0nKSejpY7C-17" value="Setting scene opens" style="ellipse;whiteSpace=wrap;html=1;aspect=fixed;fillColor=#f8cecc;strokeColor=#b85450;" parent="WIyWlLk6GJQsqaUBKTNV-1" vertex="1">
          <mxGeometry x="445" y="360" width="80" height="80" as="geometry" />
        </mxCell>
        <mxCell id="w46rc9Ggta0nKSejpY7C-21" value="Gameplay scene opens" style="ellipse;whiteSpace=wrap;html=1;aspect=fixed;fillColor=#f8cecc;strokeColor=#b85450;" parent="WIyWlLk6GJQsqaUBKTNV-1" vertex="1">
          <mxGeometry x="315" y="560" width="80" height="80" as="geometry" />
        </mxCell>
        <mxCell id="w46rc9Ggta0nKSejpY7C-25" style="edgeStyle=orthogonalEdgeStyle;rounded=1;orthogonalLoop=1;jettySize=auto;html=1;exitX=0.5;exitY=1;exitDx=0;exitDy=0;entryX=0.5;entryY=0;entryDx=0;entryDy=0;shape=flexArrow;fillColor=default;endSize=4;width=5;endWidth=15;" parent="WIyWlLk6GJQsqaUBKTNV-1" source="w46rc9Ggta0nKSejpY7C-22" target="w46rc9Ggta0nKSejpY7C-23" edge="1">
          <mxGeometry relative="1" as="geometry" />
        </mxCell>
        <mxCell id="w46rc9Ggta0nKSejpY7C-22" value="Game searches for partner" style="rounded=1;whiteSpace=wrap;html=1;fillColor=#dae8fc;strokeColor=#6c8ebf;" parent="WIyWlLk6GJQsqaUBKTNV-1" vertex="1">
          <mxGeometry x="295" y="360" width="120" height="40" as="geometry" />
        </mxCell>
        <mxCell id="w46rc9Ggta0nKSejpY7C-27" value="No" style="edgeStyle=orthogonalEdgeStyle;rounded=1;orthogonalLoop=1;jettySize=auto;html=1;exitX=0;exitY=0.5;exitDx=0;exitDy=0;entryX=0;entryY=0.5;entryDx=0;entryDy=0;shape=flexArrow;fillColor=default;endSize=4;width=5;endWidth=15;" parent="WIyWlLk6GJQsqaUBKTNV-1" source="w46rc9Ggta0nKSejpY7C-23" target="w46rc9Ggta0nKSejpY7C-22" edge="1">
          <mxGeometry relative="1" as="geometry" />
        </mxCell>
        <mxCell id="w46rc9Ggta0nKSejpY7C-28" value="Yes" style="edgeStyle=orthogonalEdgeStyle;rounded=1;orthogonalLoop=1;jettySize=auto;html=1;exitX=0.5;exitY=1;exitDx=0;exitDy=0;shape=flexArrow;fillColor=default;endSize=4;width=5;endWidth=15;" parent="WIyWlLk6GJQsqaUBKTNV-1" source="w46rc9Ggta0nKSejpY7C-23" target="w46rc9Ggta0nKSejpY7C-21" edge="1">
          <mxGeometry relative="1" as="geometry" />
        </mxCell>
        <mxCell id="w46rc9Ggta0nKSejpY7C-23" value="&lt;span style=&quot;font-size: 10px&quot;&gt;Partner found?&lt;/span&gt;" style="rhombus;whiteSpace=wrap;html=1;shadow=0;fontFamily=Helvetica;fontSize=12;align=center;strokeWidth=1;spacing=6;spacingTop=-4;fillColor=#fff2cc;strokeColor=#d6b656;" parent="WIyWlLk6GJQsqaUBKTNV-1" vertex="1">
          <mxGeometry x="310" y="440" width="90" height="80" as="geometry" />
        </mxCell>
        <mxCell id="w46rc9Ggta0nKSejpY7C-29" value="Gameplay scene opens" style="ellipse;whiteSpace=wrap;html=1;aspect=fixed;fillColor=#f8cecc;strokeColor=#b85450;" parent="WIyWlLk6GJQsqaUBKTNV-1" vertex="1">
          <mxGeometry x="180" y="360" width="80" height="80" as="geometry" />
        </mxCell>
        <mxCell id="w46rc9Ggta0nKSejpY7C-32" style="edgeStyle=orthogonalEdgeStyle;rounded=1;orthogonalLoop=1;jettySize=auto;html=1;exitX=0.5;exitY=1;exitDx=0;exitDy=0;entryX=0.5;entryY=0;entryDx=0;entryDy=0;shape=flexArrow;fillColor=default;endSize=4;width=5;endWidth=15;" parent="WIyWlLk6GJQsqaUBKTNV-1" source="w46rc9Ggta0nKSejpY7C-31" target="WIyWlLk6GJQsqaUBKTNV-6" edge="1">
          <mxGeometry relative="1" as="geometry" />
        </mxCell>
        <mxCell id="w46rc9Ggta0nKSejpY7C-31" value="Wait for player input" style="rounded=1;whiteSpace=wrap;html=1;fillColor=#dae8fc;strokeColor=#6c8ebf;" parent="WIyWlLk6GJQsqaUBKTNV-1" vertex="1">
          <mxGeometry x="160" y="160" width="120" height="40" as="geometry" />
        </mxCell>
      </root>
    </mxGraphModel>
  </diagram>
</mxfile>
